<?xml version="1.0" encoding="utf-8"?>
<svg version="1.1" id="圖層_1" xmlns="http://www.w3.org/2000/svg" xmlns:xlink="http://www.w3.org/1999/xlink" x="0px" y="0px" viewBox="0 0 100 100" style="background: rgb(255, 255, 255); shape-rendering: auto;" xml:space="preserve" width="200px" height="200px"><g style="transform-origin: 50% 50%; transform: scale(0.64);"><g><g style="transform-origin: 49.9996px 49.9997px; transform: matrix(1, 0, 0, 1, 0, 0); opacity: 1; animation: 1s linear -1s infinite normal forwards running slide-ttb-88fd9099-6984-407c-aeba-39bfe3731120;"><path style="fill: rgb(245, 225, 105);" d="M20.788,71.53l9.562-14.035c0.548-0.734,0.163-1.995-0.609-1.995l-12.398,0.001 c-0.881,0-1.684,0.681-2.066,1.752L6.064,78.968c-0.148,0.394,0.062,0.861,0.39,0.864l14.331,0l-3.169,8.047 c-0.257,0.596-0.158,1.355,0.235,1.795h0c0.393,0.44,0.964,0.433,1.351-0.018L33.83,72.604c0.31-0.362,0.119-1.05-0.292-1.045 L20.788,71.53z"></path></g><g style="transform-origin: 49.9996px 49.9997px; transform: matrix(1, 0, 0, 1, 0, 0); opacity: 1; animation: 1s linear -0.833333s infinite normal forwards running slide-ttb-88fd9099-6984-407c-aeba-39bfe3731120;"><path style="fill: rgb(248, 178, 106);" d="M51.827,47.172l22.172-32.545C75.269,12.925,74.377,10,72.587,10l-28.75,0.002 c-2.042,0-3.904,1.579-4.791,4.062l-21.36,50.354c-0.343,0.914,0.145,1.996,0.904,2.004l33.231,0l-7.349,18.66 c-0.596,1.381-0.366,3.142,0.545,4.163h0c0.911,1.021,2.236,1.004,3.132-0.041L82.07,49.661c0.72-0.839,0.275-2.434-0.676-2.424 L51.827,47.172z"></path></g><g style="transform-origin: 49.9996px 49.9997px; transform: matrix(1, 0, 0, 1, 0, 0); opacity: 1; animation: 1s linear -0.666667s infinite normal forwards running slide-ttb-88fd9099-6984-407c-aeba-39bfe3731120;"><path style="fill: rgb(245, 225, 105);" d="M80.788,71.53l9.562-14.035c0.548-0.734,0.163-1.995-0.609-1.995l-12.398,0.001 c-0.881,0-1.684,0.681-2.066,1.752l-9.212,21.715c-0.148,0.394,0.062,0.861,0.39,0.864l14.331,0l-3.169,8.047 c-0.257,0.596-0.158,1.355,0.235,1.795l0,0c0.393,0.44,0.964,0.433,1.351-0.018L93.83,72.604c0.31-0.362,0.119-1.05-0.292-1.045 L80.788,71.53z"></path></g><metadata xmlns:d="https://loading.io/stock/">
<d:name>thunder</d:name>
<d:tags>thunder,lightning,electronic,electricity,power,energy,supply,plant,percent,ratio,charge</d:tags>
<d:license>cc-by</d:license>
<d:slug>q6ugg9</d:slug>
</metadata></g></g><style id="slide-ttb-88fd9099-6984-407c-aeba-39bfe3731120" data-anikit="">@keyframes slide-ttb-88fd9099-6984-407c-aeba-39bfe3731120
{
  0% {
    animation-timing-function: cubic-bezier(0.4652,0.1051,0.774,0.6426);
    transform: matrix(1,0,0,1,0,0);
    opacity: 1;
  }
  22.5% {
    animation-timing-function: cubic-bezier(0.4142,0.3131,0.7623,0.6513);
    transform: matrix(1,0,0,1,0,47.8);
    opacity: 1;
  }
  45% {
    animation-timing-function: cubic-bezier(0.3615,0.331,0.9646,1.3461);
    transform: matrix(1,0,0,1,0,147.8);
    opacity: 1;
  }
  47.5% {
    animation-timing-function: cubic-bezier(0.7006,0.3332,0.6667,0.6667);
    transform: matrix(1,0,0,1,0,165.6);
    opacity: 0;
  }
  50% {
    animation-timing-function: cubic-bezier(0.1604,0.3176,-0.0218,0.6965);
    transform: matrix(1,0,0,1,0,-200);
    opacity: 0;
  }
  51% {
    animation-timing-function: cubic-bezier(0.1983,0.3529,0.5263,0.6945);
    transform: matrix(1,0,0,1,0,-179.8);
    opacity: 0;
  }
  80.4% {
    animation-timing-function: cubic-bezier(0.2342,0.3708,0.5422,0.9065);
    transform: matrix(1,0,0,1,0,-38.4);
    opacity: 1;
  }
  100% {
    transform: matrix(1,0,0,1,0,0);
    opacity: 1;
  }
}</style><style id="slide-ttb-88fd9099-6984-407c-aeba-39bfe3731120" data-anikit="">@keyframes slide-ttb-88fd9099-6984-407c-aeba-39bfe3731120
{
  0% {
    animation-timing-function: cubic-bezier(0.4652,0.1051,0.774,0.6426);
    transform: matrix(1,0,0,1,0,0);
    opacity: 1;
  }
  22.5% {
    animation-timing-function: cubic-bezier(0.4142,0.3131,0.7623,0.6513);
    transform: matrix(1,0,0,1,0,47.8);
    opacity: 1;
  }
  45% {
    animation-timing-function: cubic-bezier(0.3615,0.331,0.9646,1.3461);
    transform: matrix(1,0,0,1,0,147.8);
    opacity: 1;
  }
  47.5% {
    animation-timing-function: cubic-bezier(0.7006,0.3332,0.6667,0.6667);
    transform: matrix(1,0,0,1,0,165.6);
    opacity: 0;
  }
  50% {
    animation-timing-function: cubic-bezier(0.1604,0.3176,-0.0218,0.6965);
    transform: matrix(1,0,0,1,0,-200);
    opacity: 0;
  }
  51% {
    animation-timing-function: cubic-bezier(0.1983,0.3529,0.5263,0.6945);
    transform: matrix(1,0,0,1,0,-179.8);
    opacity: 0;
  }
  80.4% {
    animation-timing-function: cubic-bezier(0.2342,0.3708,0.5422,0.9065);
    transform: matrix(1,0,0,1,0,-38.4);
    opacity: 1;
  }
  100% {
    transform: matrix(1,0,0,1,0,0);
    opacity: 1;
  }
}</style><!-- generated by https://loading.io/ --></svg>